HIERARCHY
ROOT Hips
{
	OFFSET 0.000000 0.000000 0.000000
	CHANNELS 6 Xposition Yposition Zposition Zrotation Yrotation Xrotation 
	JOINT LeftUpLeg_virtual
	{
		OFFSET 0.000000 0.000000 0.000000
		CHANNELS 3 Zrotation Yrotation Xrotation
		JOINT LeftUpLeg
		{
			OFFSET 8.479694 -4.795517 -0.379053
			CHANNELS 3 Zrotation Yrotation Xrotation
			JOINT LeftLeg
			{
				OFFSET 0.485052 -32.551468 0.112863
				CHANNELS 3 Zrotation Yrotation Xrotation
				JOINT LeftFoot
				{
					OFFSET 0.438033 -32.635670 -3.012641
					CHANNELS 3 Zrotation Yrotation Xrotation
					JOINT LeftToeBase
					{
						OFFSET 0.970169 -13.225353 11.864223
						CHANNELS 3 Zrotation Yrotation Xrotation
						End Site
						{
							OFFSET 0.000000 0.000000 0.000000
						}
					}
				}
			}
		}
	}
	JOINT RightUpLeg_virtual
	{
		OFFSET 0.000000 0.000000 0.000000
		CHANNELS 3 Zrotation Yrotation Xrotation
		JOINT RightUpLeg
		{
			OFFSET -8.479694 -4.795517 -0.379053
			CHANNELS 3 Zrotation Yrotation Xrotation
			JOINT RightLeg
			{
				OFFSET -0.484100 -32.551483 0.112903
				CHANNELS 3 Zrotation Yrotation Xrotation
				JOINT RightFoot
				{
					OFFSET -0.438985 -32.635651 -3.012681
					CHANNELS 3 Zrotation Yrotation Xrotation
					JOINT RightToeBase
					{
						OFFSET -0.970169 -13.225354 11.864223
						CHANNELS 3 Zrotation Yrotation Xrotation
						End Site
						{
							OFFSET 0.000000 0.000000 0.000000
						}
					}
				}
			}
		}
	}
	JOINT Spine_virtual
	{
		OFFSET 0.000000 0.000000 0.000000
		CHANNELS 3 Zrotation Yrotation Xrotation
		JOINT Spine
		{
			OFFSET 0.000000 7.722015 1.166203
			CHANNELS 3 Zrotation Yrotation Xrotation
			JOINT Spine1
			{
				OFFSET 0.000000 12.024086 0.248766
				CHANNELS 3 Zrotation Yrotation Xrotation
				JOINT Spine2
				{
					OFFSET -0.000000 11.503036 -0.491240
					CHANNELS 3 Zrotation Yrotation Xrotation
					JOINT Neck_virtual
					{
						OFFSET 0.000000 0.000000 0.000000
						CHANNELS 3 Zrotation Yrotation Xrotation
						JOINT Neck
						{
							OFFSET 0.000000 18.430687 -3.123054
							CHANNELS 3 Zrotation Yrotation Xrotation
							JOINT Head
							{
								OFFSET -0.000000 9.051071 1.034021
								CHANNELS 3 Zrotation Yrotation Xrotation
								End Site
								{
									OFFSET 0.000000 0.000000 0.000000
								}
							}
						}
					}
					JOINT LeftShoulder_virtual
					{
						OFFSET 0.000000 0.000000 0.000000
						CHANNELS 3 Zrotation Yrotation Xrotation
						JOINT LeftShoulder
						{
							OFFSET 6.197824 13.665230 -4.064723
							CHANNELS 3 Zrotation Yrotation Xrotation
							JOINT LeftArm
							{
								OFFSET 7.778132 -0.187073 -1.709282
								CHANNELS 3 Zrotation Yrotation Xrotation
								JOINT LeftForeArm
								{
									OFFSET 21.954697 0.000000 -2.041093
									CHANNELS 3 Zrotation Yrotation Xrotation
									JOINT LeftHand
									{
										OFFSET 22.992908 0.000000 -0.870901
										CHANNELS 3 Zrotation Yrotation Xrotation
										End Site
										{
											OFFSET 0.000000 0.000000 0.000000
										}
									}
								}
							}
						}
					}
					JOINT RightShoulder_virtual
					{
						OFFSET 0.000000 0.000000 0.000000
						CHANNELS 3 Zrotation Yrotation Xrotation
						JOINT RightShoulder
						{
							OFFSET -6.197824 13.665230 -4.064723
							CHANNELS 3 Zrotation Yrotation Xrotation
							JOINT RightArm
							{
								OFFSET -7.778132 -0.187073 -1.709282
								CHANNELS 3 Zrotation Yrotation Xrotation
								JOINT RightForeArm
								{
									OFFSET -21.954697 0.000000 -2.041093
									CHANNELS 3 Zrotation Yrotation Xrotation
									JOINT RightHand
									{
										OFFSET -22.992908 0.000000 -0.870901
										CHANNELS 3 Zrotation Yrotation Xrotation
										End Site
										{
											OFFSET 0.000000 0.000000 0.000000
										}
									}
								}
							}
						}
					}
				}
			}
		}
	}
}
MOTION
Frames: 10
Frame Time: 0.033333
43.866611 82.218109 -11.864997 179.919614 -0.626239 -179.976414 -4.463982 1.643827 11.228962 3.329698 -6.636515 -25.250525 6.388986 7.182281 24.377591 -4.763410 -5.857820 -5.658161 0.000000 0.000000 0.000000 -0.680306 1.546971 11.812513 -1.236300 -4.858013 -13.667390 -2.199514 -0.033768 20.121713 9.460780 12.384732 -8.264281 0.000000 0.000000 0.000000 3.227130 3.774719 1.033894 -5.585306 0.090118 -1.886421 -0.252731 -3.972420 3.344191 -0.004103 -0.021710 0.019958 -0.375012 -2.880605 4.545342 -0.054055 2.356031 -17.100635 0.000000 0.000000 0.000000 0.974335 -2.039622 1.708865 8.824807 7.260716 -6.079293 -1.407965 -11.133971 -36.393819 -8.332290 -19.835670 -4.820598 0.000000 0.000000 0.000000 -2.919238 -0.852897 1.139540 3.572072 -8.119175 -11.910136 25.968586 -13.771212 -41.760846 0.334083 25.699879 -8.818135 0.000000 0.000000 0.000000 
43.848763 82.231293 -11.940044 179.965171 -0.561922 -179.877485 -4.400124 1.571955 11.209600 3.316835 -6.694459 -25.287080 6.553104 7.184168 24.705739 -4.650507 -5.729632 -5.853269 0.000000 0.000000 0.000000 -0.621075 1.528309 11.965768 -1.144428 -5.155309 -13.555393 -2.001792 -0.158097 20.367479 9.712483 12.590565 -8.049084 0.000000 0.000000 0.000000 3.207399 3.758975 1.044583 -5.573035 0.116541 -1.943485 -0.222610 -3.966548 3.286505 0.018886 -0.011960 0.000631 -0.405414 -2.946421 4.515232 -0.087661 2.321394 -17.171823 0.000000 0.000000 0.000000 0.972173 -2.070006 1.762277 8.825007 7.224478 -6.141887 -1.416127 -11.146679 -36.393891 -8.335716 -19.870024 -4.840322 0.000000 0.000000 0.000000 -2.933028 -0.859372 1.184610 3.580098 -8.143685 -11.820909 25.996093 -13.563365 -41.814934 0.335619 25.736909 -8.841646 0.000000 0.000000 0.000000 
43.827980 82.237518 -12.038191 179.922674 -0.611410 -179.888372 -4.454702 1.530771 11.270108 3.290293 -6.719755 -25.275783 6.548751 7.158881 24.718916 -4.641847 -5.712969 -5.869781 0.000000 0.000000 0.000000 -0.612531 1.465060 12.036258 -1.199485 -5.187451 -13.578960 -1.991261 -0.072426 20.414944 9.697278 12.539295 -8.062557 0.000000 0.000000 0.000000 3.168771 3.705307 1.150510 -5.595431 0.109306 -1.973320 -0.244051 -3.996401 3.286320 -0.011473 -0.054859 0.025757 -0.357588 -2.863358 4.512581 -0.053708 2.400911 -17.062589 0.000000 0.000000 0.000000 0.992523 -2.017270 1.690447 8.821879 7.296869 -6.104697 -1.365227 -11.168643 -36.339444 -8.390805 -19.874081 -4.796558 0.000000 0.000000 0.000000 -2.903126 -0.795580 1.140110 3.593095 -8.033225 -11.805617 26.116564 -13.729158 -41.804487 0.276624 25.735045 -8.926641 0.000000 0.000000 0.000000 
43.797157 82.235947 -12.117276 -179.985361 -0.588100 -179.864631 -4.354645 1.569455 11.306112 3.257610 -6.694712 -25.334982 6.599056 7.226139 24.806935 -4.651254 -5.720006 -5.930643 0.000000 0.000000 0.000000 -0.501831 1.466488 12.080358 -1.191080 -5.193041 -13.642360 -1.982713 0.133515 20.511797 9.618408 12.419476 -8.068662 0.000000 0.000000 0.000000 3.234193 3.842340 1.260322 -5.534588 0.289137 -2.085486 -0.211178 -4.029172 3.246153 0.016476 -0.283372 0.008461 -0.413961 -2.934321 4.491702 -0.028699 2.407128 -17.002658 0.000000 0.000000 0.000000 0.973931 -2.130388 1.637579 8.823699 7.240996 -6.129816 -1.272733 -11.055373 -36.247496 -8.468286 -19.904259 -4.657695 0.000000 0.000000 0.000000 -2.967220 -0.839599 1.149333 3.573232 -7.969520 -11.764701 26.370648 -13.814634 -42.088193 0.352922 25.763021 -8.843352 0.000000 0.000000 0.000000 
43.770916 82.230896 -12.166929 179.940992 -0.603974 -179.838034 -4.405085 1.541595 11.331894 3.256514 -6.739902 -25.356878 6.583598 7.263623 24.833057 -4.648815 -5.723863 -5.958497 0.000000 0.000000 0.000000 -0.560096 1.461740 12.123878 -1.257247 -5.113104 -13.732560 -1.968430 0.106438 20.623150 9.629890 12.361836 -8.088208 0.000000 0.000000 0.000000 3.207298 3.715558 1.391563 -5.530090 0.211602 -2.186183 -0.241819 -3.921731 3.238403 -0.008934 0.000841 0.009288 -0.355924 -2.871438 4.477726 0.040084 2.458452 -16.918061 0.000000 0.000000 0.000000 0.974720 -2.024272 1.731871 8.877932 7.028759 -6.129797 -1.109576 -11.077594 -36.284571 -8.528395 -19.970327 -4.590526 0.000000 0.000000 0.000000 -2.960977 -0.866221 1.140280 3.639678 -7.950803 -11.730370 26.599115 -14.061734 -42.317537 0.388040 25.771298 -8.805816 0.000000 0.000000 0.000000 
43.737858 82.227440 -12.194178 -179.974064 -0.686208 -179.802599 -4.334166 1.558000 11.329231 3.249359 -6.756081 -25.406055 6.607501 7.350404 24.895826 -4.695838 -5.778013 -5.971294 0.000000 0.000000 0.000000 -0.468759 1.475059 12.169284 -1.255675 -5.121299 -13.837235 -1.940858 0.170108 20.761248 9.585499 12.247929 -8.112354 0.000000 0.000000 0.000000 3.266105 3.714296 1.505419 -5.459661 0.196717 -2.333800 -0.215461 -3.932672 3.314422 0.017163 -0.017914 0.006465 -0.405108 -2.894388 4.473049 0.124147 2.520697 -16.691025 0.000000 0.000000 0.000000 0.950218 -2.036438 1.642455 8.947478 6.848467 -6.121528 -1.003104 -10.978563 -36.205453 -8.611800 -20.078444 -4.450101 0.000000 0.000000 0.000000 -3.004841 -0.826984 1.115978 3.643707 -7.875817 -11.720486 26.951344 -14.269347 -42.653374 0.423409 25.904717 -8.748846 0.000000 0.000000 0.000000 
43.707108 82.229492 -12.204564 -179.979911 -0.700499 -179.840629 -4.347029 1.640266 11.346652 3.213409 -6.813522 -25.417524 6.626674 7.433367 24.923217 -4.732013 -5.819599 -5.953589 0.000000 0.000000 0.000000 -0.433602 1.498651 12.211106 -1.301013 -5.150644 -13.942174 -1.918011 0.266355 20.930427 9.569543 12.143910 -8.153763 0.000000 0.000000 0.000000 3.277835 3.841575 1.676693 -5.435076 0.303867 -2.372482 -0.229349 -3.996027 3.259356 0.011130 -0.112850 -0.034869 -0.393137 -2.921752 4.506168 0.213914 2.496992 -16.509631 0.000000 0.000000 0.000000 0.938903 -2.005632 1.707561 9.018587 6.685995 -6.044499 -0.975999 -11.037441 -36.100009 -8.631979 -20.128740 -4.300428 0.000000 0.000000 0.000000 -3.010085 -0.811106 1.168504 3.734731 -7.779666 -11.602984 27.195819 -14.522915 -43.024666 0.415820 26.121230 -8.723535 0.000000 0.000000 0.000000 
43.689629 82.235268 -12.209607 -179.975485 -0.719163 -179.844850 -4.360236 1.672456 11.329821 3.250798 -6.893579 -25.434655 6.660392 7.488488 24.977408 -4.739496 -5.841191 -5.971599 0.000000 0.000000 0.000000 -0.415254 1.489571 12.255839 -1.357146 -5.088555 -14.041873 -1.898656 0.239576 21.074851 9.608662 12.041532 -8.158971 0.000000 0.000000 0.000000 3.305847 3.758316 1.763269 -5.372997 0.199142 -2.434580 -0.205534 -3.890918 3.283061 0.018956 -0.018457 0.032211 -0.367571 -2.896729 4.451074 0.325359 2.546883 -16.224829 0.000000 0.000000 0.000000 0.927004 -1.970308 1.666384 9.114312 6.388637 -5.966239 -1.089124 -11.028161 -35.879312 -8.706105 -20.168512 -4.069456 0.000000 0.000000 0.000000 -3.017271 -0.762485 1.103096 3.810588 -7.665888 -11.490047 27.332044 -14.667138 -43.354264 0.432209 26.466903 -8.564653 0.000000 0.000000 0.000000 
43.699829 82.250145 -12.225608 179.919190 -0.757729 -179.854044 -4.468980 1.697240 11.329295 3.318964 -7.009573 -25.416136 6.654283 7.449481 24.931126 -4.738985 -5.870155 -5.901438 0.000000 0.000000 0.000000 -0.425209 1.515559 12.269443 -1.413087 -5.107268 -14.144755 -1.880084 0.236400 21.259117 9.661750 11.911321 -8.192450 0.000000 0.000000 0.000000 3.262191 3.765483 1.850615 -5.357095 0.184130 -2.449842 -0.226787 -3.886326 3.340069 -0.018269 -0.037488 0.044414 -0.273725 -2.729913 4.454786 0.412518 2.591165 -15.933400 0.000000 0.000000 0.000000 1.020867 -1.874836 1.630815 9.245534 6.042436 -5.832518 -1.232287 -10.973438 -35.763373 -8.693377 -20.246948 -3.958654 0.000000 0.000000 0.000000 -2.923614 -0.724581 1.150675 4.029856 -7.524723 -11.329757 27.294524 -14.826843 -43.645001 0.358853 26.912912 -8.492127 0.000000 0.000000 0.000000 
43.749104 82.268196 -12.236086 -179.977875 -0.771008 -179.864207 -4.400400 1.750148 11.343051 3.365893 -6.998387 -25.427804 6.701032 7.542286 24.949127 -4.753545 -5.939263 -5.851162 0.000000 0.000000 0.000000 -0.310373 1.504161 12.280144 -1.368716 -5.057521 -14.211176 -1.888441 0.277749 21.377160 9.699745 11.719800 -8.216652 0.000000 0.000000 0.000000 3.332941 3.757898 1.942255 -5.219589 0.242437 -2.494358 -0.148248 -3.830965 3.356959 0.028391 -0.014191 0.030637 -0.323341 -2.842841 4.456184 0.447604 2.544180 -15.626612 0.000000 0.000000 0.000000 0.964162 -1.915664 1.632359 9.426562 5.495539 -5.748620 -1.565433 -10.837862 -35.518439 -8.638771 -20.332111 -3.736129 0.000000 0.000000 0.000000 -3.019604 -0.674307 1.087448 4.253663 -7.330359 -11.176994 27.229215 -14.937093 -43.765383 0.293433 27.385317 -8.329035 0.000000 0.000000 0.000000 
